<?xml version="1.0" standalone="no"?>
<!DOCTYPE svg PUBLIC "-//W3C//DTD SVG 20010904//EN"
 "http://www.w3.org/TR/2001/REC-SVG-20010904/DTD/svg10.dtd">
<svg version="1.0" xmlns="http://www.w3.org/2000/svg"
 width="471.000000pt" height="471.000000pt" viewBox="0 0 471.000000 471.000000"
 preserveAspectRatio="xMidYMid meet">
<metadata>
Created by potrace 1.14, written by Peter Selinger 2001-2017
</metadata>
<g transform="translate(0.000000,471.000000) scale(0.100000,-0.100000)"
fill="#000000" stroke="none">
<path d="M4073 4703 c9 -2 23 -2 30 0 6 3 -1 5 -18 5 -16 0 -22 -2 -12 -5z"/>
<path d="M2268 4603 c-56 -11 -122 -49 -141 -80 -12 -19 -25 -16 -32 7 -9 30
-22 24 -44 -17 -11 -21 -43 -63 -71 -93 -76 -81 -98 -112 -102 -144 -3 -26
-10 -31 -58 -47 -39 -13 -67 -31 -99 -64 -26 -28 -40 -50 -34 -56 5 -5 32 -5
68 1 71 12 128 -2 150 -37 14 -21 14 -23 -2 -24 -32 -1 -127 -36 -131 -47 -2
-7 3 -15 12 -18 13 -5 9 -13 -19 -40 -22 -21 -35 -43 -35 -59 0 -28 13 -31 50
-10 33 19 90 19 117 0 35 -25 23 -72 -63 -247 -64 -130 -76 -203 -49 -290 17
-53 17 -56 -1 -75 -86 -91 -252 -343 -290 -443 -10 -25 -42 -78 -72 -119 -91
-124 -121 -221 -98 -317 6 -29 4 -33 -23 -42 -17 -6 -53 -34 -81 -63 -46 -47
-52 -50 -68 -37 -45 39 -114 68 -183 78 -41 6 -105 18 -143 26 -58 13 -91 13
-75 1 12 -10 213 -57 241 -57 34 0 128 -54 155 -88 11 -15 16 -13 49 26 58 69
154 126 154 92 0 -6 -21 -24 -46 -40 -26 -16 -65 -53 -86 -82 -22 -29 -42 -55
-44 -57 -2 -3 -17 7 -32 21 -54 50 -135 85 -237 103 -124 21 -154 29 -181 45
-33 19 -54 12 -54 -17 0 -8 -21 -39 -46 -71 -73 -92 -132 -252 -121 -332 l5
-39 -102 6 c-122 7 -168 -4 -220 -52 -22 -19 -41 -34 -43 -31 -2 2 4 20 13 40
30 62 86 79 287 85 14 1 17 10 17 51 0 53 29 153 58 199 9 14 34 51 57 81 50
68 75 113 75 134 0 18 35 22 45 6 3 -5 16 -10 28 -9 21 0 21 1 3 12 -11 7 -33
24 -51 39 -36 31 -45 28 -45 -16 0 -29 -22 -70 -95 -177 -70 -103 -108 -209
-99 -273 2 -13 -9 -16 -69 -16 -87 0 -141 -14 -185 -46 -41 -32 -59 -68 -67
-135 -4 -30 -15 -114 -26 -187 -22 -150 -18 -199 20 -239 89 -96 195 -59 220
78 17 87 20 92 65 84 54 -11 98 -45 123 -95 19 -39 21 -59 18 -155 -1 -63 1
-101 5 -90 5 11 9 70 9 130 1 129 -11 162 -77 212 -39 29 -51 33 -106 33 -73
0 -118 -13 -164 -47 -55 -41 -65 -100 -20 -124 25 -13 30 -8 37 38 8 48 41 57
66 19 53 -80 -73 -130 -147 -59 -60 57 -21 157 74 189 79 27 181 25 241 -5 92
-47 146 -179 127 -311 -24 -165 -43 -246 -63 -267 -33 -36 -37 -27 -16 34 10
31 19 66 19 77 0 12 -13 -15 -29 -59 -16 -44 -32 -88 -36 -97 -4 -12 2 -26 19
-43 14 -14 26 -29 26 -33 0 -4 17 -18 37 -32 21 -14 45 -32 54 -40 37 -32 49
-40 59 -40 5 0 10 -4 10 -10 0 -8 31 -28 154 -98 16 -9 38 -25 48 -35 10 -9
22 -17 27 -17 23 0 19 -34 -7 -60 -27 -26 -76 -44 -288 -105 -67 -20 -86 -43
-92 -108 -5 -64 3 -73 85 -93 32 -8 74 -19 93 -24 19 -5 60 -11 90 -15 30 -3
62 -8 70 -10 14 -4 252 -31 360 -40 25 -3 162 -6 305 -9 273 -4 433 5 550 30
160 35 234 43 449 45 220 2 312 12 441 46 116 32 169 71 179 133 12 77 -45
147 -151 185 -41 15 -111 46 -200 87 -12 6 -35 24 -50 40 -27 28 -28 33 -29
142 -1 62 2 133 6 157 4 24 11 67 14 96 8 72 21 99 52 115 16 7 31 25 35 40 4
15 28 50 54 77 26 27 62 73 80 103 19 29 46 71 61 92 27 38 28 39 36 16 8 -22
3 -63 -19 -149 l-6 -25 34 24 c19 13 47 37 64 52 25 24 30 26 35 12 5 -13 18
-5 63 37 31 29 57 58 57 65 0 18 27 25 39 10 8 -10 4 -37 -18 -103 -27 -83
-39 -108 -105 -223 -14 -25 -26 -55 -26 -68 0 -23 0 -23 30 -5 16 9 30 20 30
23 0 3 17 14 38 25 20 11 43 28 50 37 7 9 18 23 25 30 19 19 95 135 118 180
23 46 32 48 27 8 -4 -44 14 -39 39 11 25 48 79 198 86 239 3 14 8 43 12 65 11
61 22 75 33 45 31 -84 45 -270 28 -372 -6 -39 -5 -48 7 -48 8 0 19 6 25 12 16
21 82 151 82 164 0 6 14 37 31 69 44 83 69 192 76 333 3 67 9 122 13 122 4 0
20 -29 36 -65 16 -35 32 -65 37 -65 4 0 7 23 7 50 0 28 4 50 8 50 5 0 18 -18
31 -40 12 -22 25 -40 28 -40 3 0 3 38 -1 85 -3 47 -2 85 2 85 14 0 57 -51 96
-112 19 -32 41 -58 47 -58 19 0 -1 238 -28 325 -13 44 188 -147 224 -212 27
-51 38 -42 34 27 -3 34 -19 85 -48 149 -13 29 -22 56 -19 58 8 8 26 -7 26 -23
0 -8 4 -14 8 -14 5 0 21 -29 37 -65 16 -36 33 -65 37 -65 4 0 8 25 8 57 0 54
1 55 18 39 19 -16 54 -83 93 -174 24 -55 39 -44 39 28 0 50 -33 217 -53 265
-6 17 -12 32 -12 35 -4 32 -42 130 -68 177 -17 32 -41 75 -52 97 -23 45 -157
203 -190 226 -112 75 -145 95 -189 116 -126 58 -304 79 -427 49 -151 -37 -362
-132 -484 -220 -67 -48 -179 -161 -273 -276 -112 -137 -187 -142 -252 -16 -19
37 -46 127 -55 190 -2 15 4 56 15 90 45 149 52 191 52 322 -1 191 -27 396 -71
565 -33 123 -50 191 -52 202 0 2 -4 20 -8 41 -9 38 -2 47 18 23 23 -27 85 -30
133 -6 23 13 64 33 89 45 25 13 64 28 86 34 23 6 43 17 46 25 6 15 -16 39 -48
50 -18 6 -16 10 18 43 21 19 36 40 34 46 -3 10 -47 28 -150 64 -17 5 -16 8 10
29 15 13 34 23 41 24 6 0 12 8 12 18 0 20 -25 34 -89 52 -24 6 -41 17 -41 25
0 8 5 15 10 15 6 0 10 9 10 20 0 15 -12 23 -52 35 -28 8 -62 15 -75 15 -28 0
-28 1 -3 42 11 18 20 36 20 39 0 22 -213 30 -302 12z m-2 -307 c119 -17 158
-82 193 -315 22 -148 18 -180 -17 -166 -12 4 -13 -2 -8 -37 8 -48 23 -71 43
-64 18 7 17 -4 -3 -25 -17 -18 -10 -44 8 -33 6 4 6 0 -1 -13 -6 -11 -7 -24 -3
-28 4 -4 -3 -6 -15 -3 -43 11 -75 -91 -39 -122 11 -8 12 -18 6 -35 -5 -13 -6
-25 -3 -28 3 -3 -5 -3 -18 0 -20 6 -21 3 -15 -18 14 -43 18 -79 10 -79 -4 0
-16 7 -26 17 -10 9 -21 13 -26 9 -4 -4 1 -13 10 -20 10 -7 20 -32 23 -55 3
-24 7 -47 10 -52 7 -10 -24 -59 -37 -59 -5 0 -6 5 -3 10 3 6 1 10 -5 10 -7 0
-10 -6 -7 -12 2 -7 11 -13 19 -12 8 1 19 -13 24 -31 8 -27 8 -32 -5 -31 -11 1
-17 -10 -19 -32 -3 -34 -22 -35 -22 -1 0 12 -4 17 -11 14 -11 -7 -7 -75 6
-127 5 -18 3 -28 -4 -28 -6 0 -11 -4 -11 -10 0 -5 6 -7 14 -4 8 3 17 1 20 -5
4 -5 -2 -12 -12 -15 -11 -4 -19 -17 -20 -38 -3 -43 -30 -65 -52 -42 -13 14
-13 17 4 30 15 10 17 17 9 25 -9 9 -19 4 -38 -20 -15 -17 -33 -31 -41 -31 -8
0 -14 -4 -14 -10 0 -5 -5 -10 -11 -10 -6 0 -10 10 -9 23 3 36 1 39 -22 23 -16
-11 -26 -12 -41 -5 -13 8 -22 8 -30 0 -16 -16 -54 -14 -60 3 -4 9 -14 12 -25
9 -14 -3 -22 1 -27 16 -5 17 -10 19 -25 11 -15 -8 -20 -5 -28 18 -6 17 -6 35
-1 45 6 9 5 18 0 22 -6 3 -17 -10 -26 -29 -9 -19 -25 -42 -36 -52 -18 -17 -19
-16 -19 14 l0 30 -24 -21 c-14 -12 -21 -24 -18 -27 11 -8 13 -30 2 -30 -5 0
-16 14 -23 31 -12 30 -14 31 -30 15 -16 -16 -17 -15 -13 26 4 46 24 98 38 98
4 0 8 7 8 16 0 10 6 14 14 11 17 -7 41 19 49 51 3 15 1 22 -9 22 -22 0 -22 65
0 88 11 11 20 9 51 -12 49 -33 92 -33 161 1 95 46 138 119 154 262 5 48 16
109 25 136 19 65 19 96 -2 140 -16 34 -16 36 4 50 30 21 38 63 16 87 -17 19
-17 21 6 39 28 23 42 89 31 151 -12 63 -29 73 -114 70 -91 -3 -121 8 -143 53
l-17 36 30 30 c48 48 124 62 240 45z m-355 -117 c44 -23 -3 -32 -66 -12 -19 6
-18 7 5 14 36 10 39 10 61 -2z m29 -209 c0 -5 -4 -10 -10 -10 -5 0 -10 5 -10
10 0 6 5 10 10 10 6 0 10 -4 10 -10z m-45 -10 c3 -5 1 -10 -4 -10 -6 0 -11 5
-11 10 0 6 2 10 4 10 3 0 8 -4 11 -10z m2139 -1019 c9 -14 -26 -23 -38 -11 -8
8 -6 9 8 4 13 -5 17 -4 12 4 -4 7 -3 12 3 12 5 0 12 -4 15 -9z m36 -41 c0 -5
-4 -10 -10 -10 -5 0 -10 5 -10 10 0 6 5 10 10 10 6 0 10 -4 10 -10z m-1690
-20 c0 -5 -2 -10 -4 -10 -3 0 -8 5 -11 10 -3 6 -1 10 4 10 6 0 11 -4 11 -10z
m-235 -60 c3 -5 -1 -10 -10 -10 -9 0 -13 5 -10 10 3 6 8 10 10 10 2 0 7 -4 10
-10z m987 -190 c-1 -13 -12 -35 -24 -47 -35 -38 -15 -36 43 3 32 23 54 33 57
26 2 -7 13 -12 25 -13 12 0 16 -3 10 -6 -21 -8 -15 -23 10 -23 15 0 18 -3 9
-8 -7 -5 -10 -16 -7 -25 5 -12 -3 -18 -35 -27 -65 -17 -180 -86 -180 -107 0
-15 -3 -15 40 -3 28 8 94 19 130 22 3 1 20 -5 38 -12 33 -12 43 -30 17 -30 -8
0 -15 5 -15 11 0 8 -5 8 -15 -1 -8 -7 -15 -9 -15 -4 0 5 -4 3 -9 -5 -7 -10 -4
-19 7 -27 19 -14 11 -27 -16 -29 -30 -2 -82 -44 -75 -60 3 -8 0 -15 -6 -15 -6
0 -8 -7 -5 -15 7 -17 -26 -21 -42 -5 -13 13 -106 1 -97 -13 7 -11 -6 -8 -70
16 l-38 14 21 25 c11 15 20 29 20 33 0 4 14 23 30 42 17 18 30 42 30 53 0 10
3 26 7 35 5 14 2 16 -15 10 -25 -7 -31 12 -7 21 8 4 15 14 15 24 0 9 12 30 26
45 14 15 37 45 51 66 14 22 32 39 39 39 8 0 14 5 14 11 0 6 8 9 18 7 11 -3 16
-12 14 -28z m-1138 -39 c19 -11 43 -21 53 -23 10 -2 21 -7 24 -11 4 -5 24 -10
45 -11 22 -1 46 -6 53 -11 10 -5 12 -4 7 3 -15 25 7 10 44 -28 21 -22 46 -40
56 -40 9 0 15 -3 11 -6 -3 -4 13 -26 35 -50 23 -25 53 -61 67 -82 14 -20 32
-43 39 -51 14 -15 32 -55 32 -73 0 -6 -10 -8 -25 -4 -28 7 -30 4 -15 -25 9
-15 7 -19 -6 -19 -9 0 -14 -6 -11 -13 6 -17 -60 -16 -91 1 -22 13 -22 12 -10
-10 7 -13 19 -31 27 -40 24 -31 3 -20 -32 15 -17 19 -41 38 -52 42 -27 11 -75
12 -75 1 0 -5 -6 -3 -13 3 -19 15 -29 3 -16 -20 7 -15 6 -19 -5 -19 -7 0 -17
11 -20 25 -4 16 -13 25 -27 25 -11 0 -22 7 -26 16 -3 9 -13 14 -24 11 -11 -3
-19 -1 -19 4 0 5 7 9 16 9 13 0 14 3 5 13 -6 8 -8 17 -4 20 6 6 -11 11 -29 8
-12 -1 -56 96 -59 131 -2 18 -9 40 -16 49 -8 9 -16 27 -18 39 -5 27 20 86 41
94 17 7 18 33 2 39 -7 3 -10 6 -6 6 4 1 23 -8 42 -18z m2263 -17 c-3 -3 -12
-4 -19 -1 -8 3 -5 6 6 6 11 1 17 -2 13 -5z m-3412 -328 c138 -13 234 -57 309
-143 16 -18 31 -33 35 -33 3 0 12 23 19 52 14 60 52 105 120 140 37 19 46 21
50 8 3 -8 26 -37 52 -65 65 -69 73 -86 53 -115 -22 -31 -103 -190 -103 -202 0
-5 10 -3 22 3 31 17 50 -12 41 -64 -5 -36 -4 -39 14 -33 14 4 28 -4 54 -31 19
-21 36 -44 40 -52 9 -22 118 -61 171 -61 44 0 50 -3 60 -27 25 -63 45 -194 41
-270 -11 -245 -36 -368 -107 -535 -23 -57 -46 -112 -50 -122 -6 -18 -8 -18
-23 -3 -14 13 -14 21 -5 42 6 14 19 25 28 25 12 0 15 6 10 26 -5 19 -1 30 15
43 14 12 22 29 22 49 0 17 6 33 14 36 18 7 17 32 -2 40 -21 8 -19 24 3 22 12
-1 17 6 17 22 0 13 9 30 19 38 25 18 17 25 -39 31 -49 6 -57 -6 -35 -48 9 -16
7 -19 -9 -19 -14 0 -27 -13 -40 -39 -22 -42 -18 -50 34 -79 17 -10 14 -11 -22
-12 -46 0 -53 -12 -33 -51 9 -16 7 -19 -14 -19 -14 0 -31 -9 -40 -22 -9 -12
-18 -20 -20 -17 -2 2 -6 51 -9 109 -2 62 -11 128 -22 162 l-18 56 31 49 c61
96 120 264 98 282 -15 13 -104 37 -110 30 -3 -3 -8 -22 -12 -43 -7 -46 -55
-149 -88 -191 -26 -32 -28 -32 -101 29 -27 24 -28 26 -12 43 14 16 47 83 47
97 0 2 -7 6 -15 9 -9 4 -26 -9 -46 -38 -18 -25 -37 -45 -44 -45 -20 0 -79 56
-71 68 4 7 30 24 57 37 49 25 49 26 33 50 l-16 24 -58 -39 -58 -40 -31 36
c-17 19 -31 41 -31 49 0 20 78 63 158 87 59 18 73 19 116 8 46 -12 49 -11 73
12 23 24 24 26 9 59 -8 19 -23 54 -34 79 -11 25 -23 55 -26 68 -9 28 -24 28
-55 -2 -15 -14 -73 -44 -131 -67 -58 -23 -115 -49 -127 -57 -32 -20 -43 -8
-43 47 0 39 5 52 29 75 32 31 86 140 76 156 -18 30 -79 -21 -121 -102 -20 -39
-30 -48 -52 -49 -159 -6 -210 -38 -220 -137 -9 -97 55 -168 99 -111 27 34 21
63 -14 67 -21 3 -29 -2 -36 -20 -7 -18 -10 -19 -15 -8 -7 17 -10 47 -8 72 1
10 19 26 40 36 44 23 137 46 150 38 5 -3 8 -36 7 -74 -3 -67 -3 -68 -73 -162
-86 -113 -111 -190 -123 -375 -4 -66 -9 -129 -11 -140 -2 -15 4 -20 32 -25 19
-4 67 -19 105 -35 60 -25 86 -29 185 -33 81 -2 131 1 170 12 54 15 55 15 70
-7 37 -54 98 -111 155 -142 34 -19 68 -35 75 -35 7 0 28 -14 47 -30 18 -17 43
-30 53 -30 24 0 24 5 1 -61 -10 -30 -21 -71 -25 -91 -4 -21 -10 -38 -14 -38
-11 0 -133 39 -143 46 -5 3 0 18 11 34 24 34 14 74 -20 85 -29 9 -47 -9 -55
-56 -7 -40 -23 -49 -55 -29 -12 8 -12 10 3 16 9 3 17 17 17 29 0 13 7 31 16
39 14 14 13 17 -10 27 -13 7 -31 9 -39 6 -20 -8 -38 -82 -23 -97 40 -41 -223
74 -294 128 -25 19 -81 58 -125 87 -44 28 -118 88 -165 132 l-85 81 14 48 c27
98 39 177 35 242 -12 176 -66 262 -207 326 -93 42 -222 32 -313 -25 l-34 -21
0 39 c0 21 5 56 11 78 30 110 169 167 322 131 38 -9 72 -14 77 -11 4 2 5 35 2
73 -9 130 32 225 168 389 8 10 19 8 48 -6 20 -11 64 -22 97 -25z m2090 -56 c3
-6 15 -10 26 -10 10 0 20 -4 20 -10 1 -5 2 -16 3 -22 0 -8 14 -13 33 -13 18 1
29 -3 26 -9 -4 -5 1 -7 11 -3 12 5 19 0 26 -18 5 -14 13 -25 17 -25 23 0 58
-106 46 -138 -3 -7 -15 -17 -25 -21 -11 -4 -32 -29 -47 -56 -32 -58 -57 -77
-71 -55 -6 8 -8 24 -6 35 3 13 -4 29 -20 44 -31 30 -39 22 -24 -24 7 -20 10
-45 7 -57 -3 -11 3 -53 14 -94 13 -51 16 -79 10 -91 -6 -10 -13 -36 -17 -58
-4 -22 -8 -42 -8 -45 -5 -21 -42 -60 -58 -60 -11 0 -27 -4 -36 -9 -15 -8 -17
1 -17 107 -1 65 -1 133 -3 152 -1 19 -1 46 0 60 1 29 -11 118 -19 140 -3 8 -7
21 -9 27 -1 7 -9 20 -18 28 -12 13 -13 20 -4 35 10 15 9 23 -6 39 -19 21 -19
21 4 21 20 0 22 3 16 34 -5 24 -2 39 8 49 8 8 13 16 11 19 -2 2 8 3 23 3 15
-1 33 4 41 9 10 8 15 8 18 -1 5 -15 33 -18 33 -4 0 11 -25 21 -52 21 -17 0
-18 3 -8 15 12 15 41 7 55 -15z m195 -2 c23 3 30 0 30 -12 0 -17 -17 -17 -68
-1 -18 6 -20 10 -10 16 7 5 14 5 16 0 1 -4 16 -5 32 -3z m90 -18 c0 -5 -2 -10
-4 -10 -3 0 -8 5 -11 10 -3 6 -1 10 4 10 6 0 11 -4 11 -10z m-1018 -47 c10 -9
18 -20 18 -25 0 -13 -37 9 -44 27 -7 20 3 19 26 -2z m-676 -60 c19 -26 17 -31
-17 -38 -39 -9 -46 -2 -25 30 20 30 25 31 42 8z m-37 -87 c7 -8 8 -17 3 -19
-4 -3 -13 3 -20 14 -14 22 0 26 17 5z m1214 -53 c9 -3 20 -17 23 -32 4 -14 13
-33 21 -42 25 -29 38 -184 19 -224 -9 -19 -16 -23 -41 -18 -16 3 -42 14 -58
24 -15 11 -32 17 -37 14 -11 -7 -90 25 -90 36 0 4 -17 13 -37 19 -21 7 -45 19
-54 26 -9 8 -19 11 -22 7 -4 -3 -7 -1 -7 6 0 7 9 15 20 18 11 3 20 12 20 19 0
8 8 14 18 14 15 1 15 2 -2 15 -20 15 -20 15 0 29 17 13 20 13 25 -2 5 -14 7
-13 13 6 6 18 15 22 46 22 34 0 41 4 46 25 3 14 10 23 15 20 4 -3 13 4 19 15
8 15 17 19 28 15 9 -4 25 -10 35 -12z m-1640 -47 c-35 -49 -38 -22 -3 32 11
17 16 19 18 8 2 -9 -5 -27 -15 -40z m483 20 c16 -12 17 -17 6 -28 -11 -11 -16
-10 -28 6 -16 22 -18 36 -6 36 5 0 17 -6 28 -14z m54 -6 c0 -5 -5 -10 -11 -10
-5 0 -7 5 -4 10 3 6 8 10 11 10 2 0 4 -4 4 -10z m78 -59 c10 -6 4 -14 -23 -30
-41 -24 -45 -25 -45 -11 0 6 6 10 14 10 7 0 16 9 19 20 6 22 14 24 35 11z
m-114 -20 c4 -5 3 -19 -2 -30 -7 -20 -9 -20 -30 -5 -30 20 -28 44 2 44 14 0
27 -4 30 -9z m-214 -101 c28 -55 26 -63 -14 -56 -119 23 -372 -120 -405 -229
-5 -16 -22 -61 -36 -100 -15 -38 -33 -101 -41 -140 -8 -38 -18 -71 -24 -73
-17 -6 -11 -58 8 -74 10 -10 24 -13 36 -9 11 4 43 -1 75 -13 43 -15 80 -19
164 -19 104 1 135 -9 80 -24 -16 -5 -71 -8 -123 -7 -76 0 -113 6 -187 30 -51
16 -95 34 -97 39 -2 6 0 35 5 65 5 30 12 82 15 115 13 141 52 230 143 324 70
73 137 116 221 142 36 11 83 31 105 44 22 13 43 24 47 24 4 1 17 -17 28 -39z
m477 -25 c52 -68 67 -174 60 -434 -6 -273 -22 -342 -137 -587 -44 -94 -85
-195 -91 -225 -14 -65 -14 -66 -36 -47 -25 21 -95 44 -188 63 -89 18 -236 66
-305 99 -154 75 -218 116 -374 239 -34 26 -79 59 -101 74 -67 43 -105 84 -96
102 5 9 19 75 31 146 25 146 23 260 -5 314 -27 53 -84 110 -134 133 -88 41
-256 24 -306 -32 -19 -21 -35 -26 -35 -12 0 22 43 55 101 78 55 23 75 26 144
22 127 -7 203 -56 261 -168 28 -53 29 -61 28 -185 -1 -104 -5 -143 -22 -195
-12 -36 -22 -72 -22 -81 0 -10 33 -46 72 -80 40 -35 80 -70 88 -78 8 -8 47
-35 85 -60 39 -24 86 -57 105 -72 83 -65 266 -147 430 -193 155 -43 200 -57
205 -66 17 -27 33 -7 40 48 8 66 38 156 88 262 100 214 134 375 130 619 -2
136 -12 204 -43 276 l-17 39 -64 1 c-66 2 -129 22 -108 36 6 4 51 6 99 5 l87
-1 30 -40z m203 -166 c91 -68 231 -152 290 -173 8 -3 46 -28 84 -55 69 -50
106 -92 106 -122 0 -9 6 -19 14 -22 25 -10 55 -313 35 -364 l-8 -22 -58 25
c-32 14 -71 32 -88 39 -16 8 -62 28 -101 45 -56 25 -81 44 -119 88 -55 66
-101 152 -110 208 -9 54 -25 94 -39 95 -6 0 -35 1 -65 2 l-54 2 -3 95 c-2 52
-7 111 -10 130 -4 19 -6 40 -5 47 1 6 -3 29 -7 51 l-9 40 46 -34 c25 -19 71
-52 101 -75z m-1710 -53 c0 -21 -11 -25 -40 -14 -20 7 -22 11 -10 18 23 14 50
12 50 -4z m726 -68 c24 -37 25 -45 15 -78 -6 -21 -11 -58 -11 -84 0 -45 1 -46
33 -47 52 -2 80 2 114 16 30 13 34 12 77 -22 25 -20 46 -39 46 -43 0 -11 -31
-36 -67 -54 -27 -14 -36 -14 -65 -2 -18 7 -51 17 -73 21 l-40 7 29 -31 30 -31
-50 0 c-27 0 -81 10 -120 22 l-71 23 4 40 c12 93 89 305 112 305 6 0 23 -19
37 -42z m526 -14 c3 -3 -2 -27 -12 -55 -10 -27 -16 -49 -14 -49 16 0 -75 -145
-117 -187 -63 -63 -92 -79 -120 -67 -25 11 -27 8 64 84 63 52 128 145 147 210
18 61 35 82 52 64z m-424 -106 c16 -16 15 -28 -2 -28 -17 0 -38 24 -29 33 9
10 17 9 31 -5z m1564 -92 c5 -6 -1 -19 -13 -28 -12 -10 -19 -24 -16 -32 3 -8
-1 -17 -9 -20 -17 -7 -19 -33 -1 -39 8 -3 6 -10 -8 -21 -19 -15 -19 -17 -3
-29 14 -11 15 -16 5 -26 -7 -7 -13 -31 -13 -54 -1 -23 -4 -49 -7 -57 -3 -8 -7
-23 -9 -33 -5 -30 -23 -18 -21 13 2 16 -1 31 -6 34 -4 3 -4 29 0 58 6 35 5 56
-3 65 -13 16 -15 72 -5 125 6 29 14 39 32 44 14 3 25 10 25 16 0 12 42 -1 52
-16z m-1239 -201 c17 -36 35 -195 22 -195 -28 0 -167 151 -153 166 14 13 94
63 104 63 6 1 18 -15 27 -34z m203 -52 c-10 -10 -19 5 -10 18 6 11 8 11 12 0
2 -7 1 -15 -2 -18z m642 -119 c42 -14 97 -37 121 -50 24 -13 49 -24 55 -24 7
0 20 -6 30 -13 18 -13 18 -15 -3 -34 -12 -11 -47 -25 -79 -32 -76 -17 -176
-47 -207 -64 -28 -14 -95 -102 -95 -124 0 -9 14 -12 45 -11 24 1 47 0 50 -4 4
-3 -1 -20 -9 -37 -34 -64 -12 -89 50 -56 16 8 36 15 44 15 8 0 33 9 55 20 22
11 45 19 50 20 6 0 35 13 65 30 117 63 110 63 117 -1 10 -79 44 -136 76 -123
27 10 58 86 51 122 l-6 32 58 -5 c33 -3 70 -6 84 -7 20 -3 25 2 30 27 7 34 9
34 81 0 64 -29 89 -48 89 -64 0 -19 -113 -66 -240 -99 -113 -30 -122 -31 -424
-37 -171 -4 -320 -11 -332 -16 -36 -13 -242 -42 -324 -45 -208 -8 -347 -6
-460 4 -122 12 -171 19 -315 47 -38 8 -106 16 -150 18 -102 6 -248 27 -258 37
-9 8 71 36 180 64 69 17 130 51 161 90 11 14 22 26 26 26 3 0 41 -18 85 -39
67 -33 209 -86 254 -95 7 -2 19 -5 27 -8 8 -3 47 -14 85 -23 39 -10 79 -24 90
-32 48 -33 214 -1 230 44 3 10 20 27 38 38 23 15 31 27 29 43 -2 14 2 22 12
22 10 0 13 6 9 15 -3 9 -2 15 3 14 28 -5 43 2 37 17 -5 13 -2 15 13 10 10 -3
24 -2 30 2 10 6 26 38 28 54 1 3 13 17 28 31 15 14 24 28 21 31 -4 3 1 6 10 6
9 0 16 3 15 8 -4 12 25 48 45 55 10 4 16 11 12 16 -3 5 4 12 15 16 11 3 20 11
20 16 0 5 8 9 18 9 15 0 15 -2 2 -11 -13 -9 -13 -10 0 -6 8 2 15 12 15 23 0
10 6 18 13 17 6 -2 11 3 10 10 -2 8 7 11 25 9 16 -2 29 3 32 10 9 22 50 19
133 -8z m-1698 1 c-7 -9 -15 -13 -19 -10 -3 3 1 10 9 15 21 14 24 12 10 -5z
m2024 -62 c-1 -32 2 -60 6 -63 5 -3 0 -16 -11 -28 -10 -13 -22 -21 -27 -18
-11 6 -4 55 10 73 6 7 5 19 -2 32 -8 15 -7 26 2 41 20 31 24 25 22 -37z m-664
27 c0 -5 -5 -10 -11 -10 -5 0 -7 5 -4 10 3 6 8 10 11 10 2 0 4 -4 4 -10z
m-370 -25 c0 -8 -7 -15 -16 -15 -14 0 -14 3 -4 15 7 8 14 15 16 15 2 0 4 -7 4
-15z m1188 -201 c14 -15 14 -16 -3 -13 -10 2 -20 10 -23 17 -5 17 6 15 26 -4z
m-1378 -9 c0 -9 -6 -12 -15 -9 -8 4 -15 10 -15 15 0 5 7 9 15 9 8 0 15 -7 15
-15z"/>
<path d="M1960 3105 c0 -29 3 -36 18 -33 11 2 17 13 17 33 0 20 -6 31 -17 33
-15 3 -18 -4 -18 -33z"/>
<path d="M2022 3087 c-23 -24 -30 -57 -12 -57 6 0 10 5 10 10 0 6 6 10 14 10
18 0 32 38 19 51 -6 6 -18 0 -31 -14z"/>
<path d="M2100 3060 c-8 -15 -17 -19 -31 -15 -15 5 -19 2 -19 -15 0 -12 5 -31
11 -42 11 -20 13 -17 36 32 23 51 26 83 3 40z"/>
<path d="M2199 3048 c-3 -35 -2 -44 5 -80 8 -39 29 -50 40 -22 10 27 7 44 -9
44 -9 0 -15 9 -15 23 0 12 -5 29 -10 37 -8 13 -10 13 -11 -2z"/>
<path d="M2108 2936 c-19 -14 -25 -56 -7 -56 5 0 7 5 4 10 -4 6 1 22 9 35 19
28 18 30 -6 11z"/>
<path d="M2147 2923 c-12 -11 -8 -23 8 -23 8 0 15 7 15 15 0 16 -12 20 -23 8z"/>
<path d="M1726 1328 c-3 -13 -6 -33 -6 -46 0 -19 4 -22 20 -17 12 4 28 1 36
-6 11 -9 18 -9 27 0 9 9 6 17 -14 34 -15 12 -29 30 -32 40 -9 24 -23 21 -31
-5z"/>
<path d="M1718 1208 c-3 -19 1 -42 9 -55 13 -20 12 -22 -9 -25 -39 -5 -28 -33
15 -36 45 -4 55 13 32 57 -15 31 -15 31 10 31 32 0 32 13 -1 39 -37 29 -51 26
-56 -11z"/>
<path d="M926 878 c-9 -5 -16 -17 -16 -28 0 -10 -6 -20 -12 -23 -10 -3 -10 -9
-2 -23 15 -26 67 -26 72 0 2 11 11 26 18 34 26 26 -24 60 -60 40z"/>
<path d="M1003 803 c-17 -36 -16 -51 3 -70 18 -18 26 -12 53 40 13 25 15 39 8
46 -20 20 -52 12 -64 -16z"/>
<path d="M1092 767 c-6 -6 -14 -25 -18 -41 -6 -24 -4 -28 9 -23 21 8 68 -15
62 -30 -2 -7 0 -13 5 -13 14 0 40 43 40 67 0 20 -4 22 -31 16 -25 -5 -31 -2
-36 16 -6 24 -16 27 -31 8z"/>
<path d="M1222 717 c-13 -17 -33 -79 -27 -85 2 -3 10 0 17 6 7 5 27 12 43 14
43 4 47 41 7 62 -23 12 -32 13 -40 3z"/>
</g>
</svg>
